<svg width="117" height="72" viewBox="0 0 117 72" fill="none" xmlns="http://www.w3.org/2000/svg">
<path d="M60.215 69.6482C59.5237 70.1508 58.5071 69.6784 58.5071 68.8237V2C58.5071 1.44771 58.9548 1 59.5071 1H114.849C115.402 1 115.849 1.44771 115.849 2L115.849 64.8867C115.849 65.2888 115.606 65.6549 115.231 65.801C97.7428 72.6229 76.8859 57.5268 60.215 69.6482Z" stroke="#A78BFA" stroke-width="2" stroke-linecap="round"/>
<path d="M58.388 71C56.2082 67.1871 52.9935 63.9726 49.1806 61.7927C45.3678 59.6128 40.9667 58.4733 36.575 58.5291C30.2319 58.6097 24.0699 61.1175 17.7299 60.904C11.2636 60.6862 4.96048 57.4618 1 52.3457" stroke="#A78BFA" stroke-width="2" stroke-linecap="round"/>
<path d="M1.40308 65.5504C19.6164 73.2365 41.4954 56.2946 58.6265 71" stroke="#A78BFA" stroke-width="2" stroke-linecap="round"/>
<path d="M115.85 65.5501C97.6363 73.2362 75.7573 56.2944 58.6263 70.9998" stroke="#A78BFA" stroke-width="2" stroke-linecap="round"/>
<path d="M58.3884 71C60.5683 67.1871 63.7829 63.9726 67.5958 61.7927C71.4086 59.6128 75.8097 58.4733 80.2014 58.5291C86.5445 58.6097 92.7064 61.1175 99.0465 60.904C105.513 60.6862 111.816 57.4618 115.776 52.3457" stroke="#A78BFA" stroke-width="2" stroke-linecap="round"/>
<path d="M97.9561 40.6777C97.5361 40.9805 97.209 41.1318 96.9746 41.1318C96.75 41.1318 96.5596 41.0977 96.4033 41.0293C96.2568 40.9707 96.1201 40.8926 95.9932 40.7949C95.7002 40.5508 95.5537 40.3311 95.5537 40.1357C95.5537 39.9307 95.6611 39.7451 95.876 39.5791C95.876 39.5791 96.1738 39.3398 96.7695 38.8613C98.3711 37.543 99.6943 36.1123 100.739 34.5693C99.8896 32.1865 99.499 30.2041 99.5674 28.6221C99.6064 27.8408 99.9434 27.167 100.578 26.6006C101.164 26.0928 101.789 25.8389 102.453 25.8389C102.648 25.8389 102.775 25.9072 102.834 26.0439C102.893 26.1807 102.922 26.3809 102.922 26.6445C102.922 26.8984 102.912 27.1719 102.893 27.4648C102.873 27.748 102.868 28.0508 102.878 28.373C102.897 28.6855 102.922 29.0273 102.951 29.3984C103.049 30.3945 103.142 31.1709 103.229 31.7275L103.713 30.9219C104.826 29.1543 106.125 27.7529 107.609 26.7178C108.449 26.1318 109.172 25.8389 109.777 25.8389C110.324 25.8389 110.749 25.917 111.052 26.0732C111.618 26.3662 111.809 26.6641 111.623 26.9668C111.594 27.0156 111.535 27.0547 111.447 27.084L111.081 27.2598C109.538 27.9336 107.57 29.584 105.178 32.2109C104.68 32.7578 104.245 33.2803 103.874 33.7783L104.387 35.4922C105.021 37.543 105.773 38.5684 106.643 38.5684C107.023 38.5684 107.336 38.5098 107.58 38.3926L108.107 38.1582C108.215 38.1094 108.317 38.085 108.415 38.085C108.62 38.085 108.723 38.1875 108.723 38.3926C108.723 39.252 108.283 39.9746 107.404 40.5605C106.818 40.9512 106.154 41.1465 105.412 41.1465C103.977 41.1465 102.678 39.667 101.516 36.708C100.285 38.5146 99.0986 39.8379 97.9561 40.6777Z" fill="#F9FAFB"/>
<path d="M82.249 40.0039C81.8388 39.6133 81.5165 39.1201 81.2822 38.5244C81.0478 37.9189 80.9257 37.2061 80.9159 36.3857C80.9062 35.5654 81.0038 34.7354 81.2089 33.8955C81.4238 33.0557 81.7216 32.2451 82.1025 31.4639C82.4931 30.6826 82.957 29.9502 83.4941 29.2666C84.0409 28.583 84.6415 27.9873 85.2958 27.4795C86.7216 26.3857 88.2011 25.8389 89.7343 25.8389C91.746 25.8389 93.1083 26.7227 93.8212 28.4902C94.329 29.7695 94.3583 31.3174 93.9091 33.1338C93.499 34.8037 92.747 36.3369 91.6533 37.7334C90.5693 39.1299 89.29 40.1211 87.8154 40.707C87.0732 41 86.3408 41.1465 85.6181 41.1465C84.9052 41.1465 84.2656 41.0537 83.6992 40.8682C83.1425 40.6826 82.6591 40.3945 82.249 40.0039ZM85.0468 32.8994C84.7538 33.6221 84.5195 34.3643 84.3437 35.126C84.1777 35.8877 84.0995 36.6104 84.1093 37.2939C84.1191 37.9678 84.2216 38.5 84.4169 38.8906C84.622 39.2715 84.9492 39.4619 85.3984 39.4619C85.8476 39.4619 86.287 39.3105 86.7167 39.0078C87.1562 38.6953 87.581 38.2852 87.9911 37.7773C88.4013 37.2695 88.787 36.6836 89.1484 36.0195C89.5097 35.3555 89.8271 34.6621 90.1005 33.9395C90.6962 32.3672 90.9843 30.9707 90.9648 29.75C90.9648 28.6758 90.7451 27.9922 90.3056 27.6992C90.1298 27.582 89.8808 27.5234 89.5585 27.5234C89.246 27.5234 88.8847 27.6699 88.4745 27.9629C88.0644 28.2461 87.6542 28.6318 87.2441 29.1201C86.8339 29.6084 86.4384 30.1797 86.0576 30.834C85.6767 31.4883 85.3398 32.1768 85.0468 32.8994Z" fill="#F9FAFB"/>
<path d="M63.9491 38.832C63.744 38.2852 63.6512 37.626 63.6708 36.8545C63.6903 36.0732 63.7977 35.1357 63.993 34.042C64.1981 32.9482 64.5057 31.7764 64.9159 30.5264C65.8631 27.626 67.1522 25.0625 68.7831 22.8359C69.0663 22.4551 69.3592 22.2646 69.662 22.2646C69.9745 22.2646 70.2772 22.333 70.5702 22.4697C70.8729 22.6064 71.1366 22.7676 71.3612 22.9531C71.9276 23.4219 72.1131 23.8027 71.9178 24.0957C70.5409 26.3027 69.4129 28.2949 68.534 30.0723C70.7508 29.916 72.704 29.2129 74.3934 27.9629C76.2391 26.6055 77.162 24.9551 77.162 23.0117C77.162 21.6934 76.5077 20.8535 75.1991 20.4922C74.7987 20.3848 74.3202 20.3311 73.7635 20.3311C73.2167 20.3311 72.6454 20.3896 72.0497 20.5068C71.4637 20.6143 70.8973 20.7656 70.3504 20.9609C69.2665 21.3613 68.2753 21.8887 67.3768 22.543C67.1229 22.7285 66.8885 22.8213 66.6737 22.8213C66.4588 22.8213 66.2245 22.7676 65.9706 22.6602C65.7167 22.543 65.492 22.4014 65.2967 22.2354C64.535 21.5908 64.6424 20.9219 65.619 20.2285C67.035 19.2324 69.1249 18.5879 71.8885 18.2949C72.4061 18.2461 73.0946 18.2217 73.954 18.2217C74.8231 18.2217 75.7069 18.3633 76.6053 18.6465C77.5135 18.9297 78.2411 19.3105 78.7879 19.7891C79.7938 20.6875 80.2967 21.9375 80.2967 23.5391C80.2967 24.9844 79.7254 26.4102 78.5829 27.8164C77.5379 29.1152 76.1903 30.1699 74.5399 30.9805C75.3309 31.332 75.9217 31.8252 76.3124 32.46C76.7128 33.085 76.9032 33.7637 76.8837 34.4961C76.8641 35.2188 76.7176 35.8877 76.4442 36.5029C76.1805 37.1084 75.8192 37.6602 75.3602 38.1582C74.911 38.6465 74.3837 39.0811 73.7782 39.4619C73.1825 39.833 72.5526 40.1406 71.8885 40.3848C70.5311 40.8926 69.1542 41.1465 67.7577 41.1465C65.7948 41.1465 64.5253 40.375 63.9491 38.832ZM67.494 32.4453C66.7518 34.291 66.3612 35.8975 66.3221 37.2646C66.3026 37.9287 66.4637 38.4414 66.8055 38.8027C67.1571 39.1543 67.6356 39.3301 68.2411 39.3301C68.8465 39.3301 69.4715 39.1982 70.1161 38.9346C70.7606 38.6709 71.3514 38.3145 71.8885 37.8652C73.119 36.8301 73.7538 35.6582 73.7928 34.3496C73.8221 33.1582 73.285 32.3477 72.1815 31.918C71.8495 31.791 71.493 31.708 71.1122 31.6689C70.6532 31.6885 70.0087 31.8057 69.1786 32.0205C68.3583 32.2354 67.7967 32.377 67.494 32.4453Z" fill="#F9FAFB"/>
<path d="M48.8495 37.1621C49.1328 37.1621 49.2744 37.3525 49.2744 37.7334C49.2744 38.0557 49.1767 38.3682 48.9814 38.6709C48.7177 39.2373 48.1904 39.7744 47.3994 40.2822C46.5009 40.8584 45.5976 41.1465 44.6894 41.1465C43.1171 41.1465 42.121 40.4434 41.7011 39.0371C41.2031 37.3672 41.9501 33.8271 43.9423 28.417C42.8193 28.3193 42.2089 28.124 42.1113 27.8311C42.082 27.7432 42.0673 27.6504 42.0673 27.5527C42.0673 27.4453 42.1113 27.3232 42.1992 27.1865C42.2968 27.0498 42.4189 26.918 42.5654 26.791C42.9072 26.5078 43.2538 26.3662 43.6054 26.3662H44.7626C45.8173 23.8955 46.5693 22.4893 47.0185 22.1475C47.2333 21.9912 47.4726 21.9131 47.7363 21.9131C47.9999 21.9131 48.2197 21.9473 48.3954 22.0156C48.5712 22.084 48.7275 22.1816 48.8642 22.3086C49.1767 22.6016 49.3329 22.9287 49.3329 23.29C49.3329 23.4854 49.2744 23.71 49.1572 23.9639L48.0732 26.3223H48.4247C49.0302 26.3223 49.5185 26.3174 49.8896 26.3076C49.8896 26.3076 50.1679 26.3027 50.7245 26.293C50.9101 26.2832 51.1396 26.2783 51.413 26.2783C51.6962 26.2783 51.8378 26.3809 51.8378 26.5859C51.8378 27.875 50.3144 28.5195 47.2675 28.5195H47.1503L46.1542 31.0977C45.0312 34.1445 44.4697 36.2783 44.4697 37.499C44.4697 37.8408 44.5478 38.1094 44.704 38.3047C44.8603 38.4902 45.1533 38.583 45.5829 38.583C46.0126 38.583 46.4033 38.5098 46.7548 38.3633C47.1064 38.2168 47.414 38.0557 47.6777 37.8799C47.9413 37.6943 48.166 37.5283 48.3515 37.3818C48.5468 37.2354 48.7128 37.1621 48.8495 37.1621Z" fill="#F9FAFB"/>
<path d="M36.3798 38.1143C36.6044 38.1143 36.7167 38.2266 36.7167 38.4512C36.7167 39.3008 36.2968 40.0137 35.457 40.5898C34.8906 40.9609 34.2265 41.1465 33.4648 41.1465C32.8398 41.1465 32.3613 41 32.0292 40.707C31.4335 40.1797 31.1357 39.5352 31.1357 38.7734C31.1357 37.8066 31.541 36.3271 32.3515 34.335C30.8476 36.3662 29.7929 37.7188 29.1874 38.3926C28.582 39.0566 28.0546 39.5742 27.6054 39.9453C26.6288 40.7461 25.7451 41.1465 24.954 41.1465C23.7431 41.1465 22.9374 40.624 22.537 39.5791C22.4199 39.2568 22.3613 38.8906 22.3613 38.4805C22.3613 38.0605 22.4296 37.5967 22.5663 37.0889C22.7128 36.5713 22.8984 36.0342 23.123 35.4775C23.3476 34.9209 23.5917 34.3496 23.8554 33.7637L24.6464 32.0059C25.662 29.75 26.038 28.4121 25.7744 27.9922C25.6572 27.8066 25.4374 27.6211 25.1152 27.4355C24.998 27.3672 24.9394 27.25 24.9394 27.084C24.9394 26.9082 25.0078 26.7422 25.1445 26.5859C25.291 26.4297 25.4765 26.293 25.7011 26.1758C26.1796 25.9512 26.6581 25.8389 27.1367 25.8389C27.6152 25.8389 27.9765 25.8926 28.2206 26C28.4745 26.0977 28.6796 26.2246 28.8359 26.3809C29.1581 26.7031 29.3193 27.0596 29.3193 27.4502C29.3193 27.8408 29.2558 28.2803 29.1288 28.7686C29.0019 29.2471 28.8359 29.7695 28.6308 30.3359C28.4257 30.9023 28.2011 31.4883 27.957 32.0938C27.2831 33.6758 26.829 34.7207 26.5947 35.2285L26.0527 36.3564C25.7499 37.0303 25.5986 37.5039 25.5986 37.7773C25.5986 38.0508 25.6425 38.2461 25.7304 38.3633C25.8183 38.4707 25.9745 38.5244 26.1992 38.5244C26.4335 38.5244 26.7021 38.417 27.0048 38.2021C27.3076 37.9873 27.6396 37.6992 28.0009 37.3379C28.3622 36.9766 28.7382 36.5615 29.1288 36.0928C29.5195 35.6143 29.9003 35.1211 30.2714 34.6133C31.0038 33.6172 31.541 32.8164 31.8828 32.2109C33.9531 28.5488 35.0566 26.6348 35.1933 26.4688C35.5058 26.0488 35.8232 25.8389 36.1454 25.8389C36.4775 25.8389 36.7656 25.8779 37.0097 25.9561C37.2538 26.0244 37.4638 26.127 37.6396 26.2637C38.0497 26.5664 38.1816 26.8691 38.0351 27.1719C35.6523 32.1426 34.3681 35.2676 34.1826 36.5469C34.1337 36.9863 34.1093 37.2891 34.1093 37.4551C34.1093 38.1973 34.3339 38.5684 34.7831 38.5684C35.2031 38.5684 35.5497 38.4951 35.8232 38.3486C36.0966 38.1924 36.2822 38.1143 36.3798 38.1143Z" fill="#F9FAFB"/>
<path d="M2.81635 34.3203C2.85542 33.1484 3.03608 31.918 3.35835 30.6289C3.69038 29.3301 4.1396 28.0801 4.706 26.8789C5.27241 25.6777 5.94135 24.5498 6.71284 23.4951C7.49409 22.4404 8.34858 21.5225 9.27631 20.7412C11.2685 19.0615 13.3583 18.2217 15.5458 18.2217C18.2021 18.2217 19.9355 19.4277 20.746 21.8398C21.039 22.6895 21.166 23.7393 21.1269 24.9893C21.0976 26.2295 20.9072 27.4941 20.5556 28.7832C20.2138 30.0723 19.7451 31.3174 19.1494 32.5186C18.5634 33.7197 17.8749 34.8477 17.0839 35.9023C16.2929 36.9473 15.4335 37.8555 14.5058 38.627C12.5234 40.3066 10.541 41.1465 8.55854 41.1465C6.7812 41.1465 5.37006 40.5654 4.32514 39.4033C3.26069 38.2119 2.75776 36.5176 2.81635 34.3203ZM7.59174 28.6953C7.0937 29.8281 6.68842 30.9854 6.37592 32.167C6.07319 33.3486 5.90717 34.3545 5.87788 35.1846C5.85835 36.0049 5.90717 36.6445 6.02436 37.1035C6.15131 37.5527 6.3271 37.9336 6.5517 38.2461C7.02045 38.9102 7.62104 39.2422 8.35346 39.2422C9.09565 39.2422 9.83784 39.0029 10.58 38.5244C11.3222 38.0459 12.04 37.4062 12.7333 36.6055C13.4365 35.8047 14.1005 34.8818 14.7255 33.8369C15.3603 32.792 15.9169 31.7031 16.3955 30.5703C17.7822 27.2793 18.29 24.5645 17.9189 22.4258C17.665 20.9414 16.8544 20.1992 15.4873 20.1992C14.2373 20.1992 12.8456 21.0488 11.3124 22.748C9.86713 24.3301 8.6269 26.3125 7.59174 28.6953Z" fill="#F9FAFB"/>
</svg>
